<?xml version="1.0" encoding="UTF-8" standalone="no"?>
<svg
   xmlns:osb="http://www.openswatchbook.org/uri/2009/osb"
   xmlns:dc="http://purl.org/dc/elements/1.1/"
   xmlns:cc="http://creativecommons.org/ns#"
   xmlns:rdf="http://www.w3.org/1999/02/22-rdf-syntax-ns#"
   xmlns:svg="http://www.w3.org/2000/svg"
   xmlns="http://www.w3.org/2000/svg"
   xmlns:sodipodi="http://sodipodi.sourceforge.net/DTD/sodipodi-0.dtd"
   xmlns:inkscape="http://www.inkscape.org/namespaces/inkscape"
   width="24px"
   height="24px"
   viewBox="0 0 24 24"
   fill="#000000"
   version="1.1"
   id="svg4586"
   sodipodi:docname="material-components-vue.svg"
   inkscape:version="0.92.3 (2405546, 2018-03-11)"
   inkscape:export-filename="D:\development\material-components-vue\docs\.vuepress\public\assets\icons\material-components-vue.png"
   inkscape:export-xdpi="2400"
   inkscape:export-ydpi="2400">
  <metadata
     id="metadata4592">
    <rdf:RDF>
      <cc:Work
         rdf:about="">
        <dc:format>image/svg+xml</dc:format>
        <dc:type
           rdf:resource="http://purl.org/dc/dcmitype/StillImage" />
        <dc:title></dc:title>
      </cc:Work>
    </rdf:RDF>
  </metadata>
  <defs
     id="defs4590">
    <linearGradient
       id="linearGradient6066"
       osb:paint="solid">
      <stop
         style="stop-color:#3eaf7c;stop-opacity:1;"
         offset="0"
         id="stop6064" />
    </linearGradient>
  </defs>
  <sodipodi:namedview
     pagecolor="#ffffff"
     bordercolor="#666666"
     borderopacity="1"
     objecttolerance="10"
     gridtolerance="10"
     guidetolerance="10"
     inkscape:pageopacity="0"
     inkscape:pageshadow="2"
     inkscape:window-width="1920"
     inkscape:window-height="1017"
     id="namedview4588"
     showgrid="false"
     inkscape:zoom="36.041667"
     inkscape:cx="12.003137"
     inkscape:cy="12.863953"
     inkscape:window-x="-8"
     inkscape:window-y="-8"
     inkscape:window-maximized="1"
     inkscape:current-layer="svg4586" />
  <path
     fill="none"
     d="M0 0h24v24H0z"
     id="path4582" />
  <path
     d="M23 12c0-6.07-4.93-11-11-11S1 5.93 1 12s4.93 11 11 11 11-4.93 11-11zM5 17.64C3.75 16.1 3 14.14 3 12c0-2.13.76-4.08 2-5.63v11.27zM17.64 5H6.36C7.9 3.75 9.86 3 12 3s4.1.75 5.64 2zM12 14.53L8.24 7h7.53L12 14.53zM17 9v8h-4l4-8zm-6 8H7V9l4 8zm6.64 2c-1.55 1.25-3.51 2-5.64 2s-4.1-.75-5.64-2h11.28zM21 12c0 2.14-.75 4.1-2 5.64V6.37c1.24 1.55 2 3.5 2 5.63z"
     id="path4584" />
  <path
     style="fill:#3eaf7c;stroke:#000000;stroke-width:1px;stroke-linecap:butt;stroke-linejoin:miter;stroke-opacity:1;fill-opacity:1"
     d="M 8.24,7 12,14.53 15.77,7 Z"
     id="path4596"
     inkscape:connector-curvature="0" />
</svg>
